<svg xmlns="http://www.w3.org/2000/svg" width="70" height="74" viewBox="0 0 70 74">
    <g fill="#FFF" fill-rule="nonzero" opacity=".2">
        <path d="M.938 71.476a5.28 5.28 0 0 0 5.27 5.27h5.632v13.503c0 3.172 2.584 5.751 5.735 5.751h.246c3.164 0 5.743-2.583 5.743-5.75V76.744h7.872V90.25c0 3.172 2.592 5.751 5.743 5.751h.242c3.163 0 5.739-2.583 5.739-5.75V76.744h5.636a5.28 5.28 0 0 0 5.267-5.269V32H.937v39.476zM40.639 8.965l4.443-7.39c.286-.467.16-1.104-.277-1.408-.433-.308-1.025-.18-1.306.3l-4.607 7.645A28.16 28.16 0 0 0 27.5 5.73c-4.08 0-7.932.858-11.396 2.383L11.506.466a.905.905 0 0 0-1.314-.299c-.437.303-.563.941-.278 1.407l4.448 7.391C6.344 13.2.937 21.18.937 30.334c0 .562.033 1.116.078 1.666H53.99c.045-.55.074-1.104.074-1.666 0-9.154-5.41-17.135-13.424-21.369zM15.219 22.2c-1.408 0-2.55-1.223-2.55-2.744 0-1.521 1.142-2.74 2.55-2.74 1.415 0 2.55 1.219 2.55 2.74 0 1.521-1.143 2.744-2.55 2.744zm24.559 0c-1.408 0-2.55-1.223-2.55-2.744 0-1.521 1.142-2.74 2.55-2.74 1.411 0 2.546 1.219 2.546 2.74 0 1.521-1.135 2.744-2.546 2.744zM64.797 32h-.216c-2.864 0-5.206 2.647-5.206 5.875v25.58c0 3.24 2.346 5.878 5.206 5.878h.22c2.868 0 5.199-2.647 5.199-5.879v-25.58C70 34.648 67.661 32 64.797 32z"/>
    </g>
</svg>
