<svg xmlns="http://www.w3.org/2000/svg" width="80" height="66" viewBox="0 0 80 66">
    <g fill="#FFF" fill-rule="nonzero" opacity=".2">
        <path d="M37 76V0H26v76h11zM18.09 0H24c0 35.233-.91 43.816-6.364 54.205C12.182 64.595-3.045 74.87-16 76V64.387c9.772-1.581 18.636-6.795 26.364-18.313C18.09 34.556 18.318 7.227 18.09 0zM45.909 0H40c0 35.233.91 43.816 6.363 54.205C51.818 64.595 67.045 74.87 80 76V64.387c-9.772-1.581-18.636-6.795-26.364-18.313C45.91 34.554 45.682 7.227 45.91 0z"/>
    </g>
</svg>
