<svg xmlns="http://www.w3.org/2000/svg" width="66" height="74" viewBox="0 0 66 74">
    <path fill="#FFF" fill-rule="nonzero" d="M69.518 77.08c-2.747-1.153-3.922-2.683-3.809-4.966.117-2.665-1.358-4.616-2.058-5.388.423-1.656 1.66-7.388.001-12.367-1.782-5.328-7.225-13.467-12.84-21.467-2.299-3.286-2.408-6.857-2.533-10.992-.12-3.944-.256-8.415-2.402-13.385C43.543 3.103 38.86 0 33.029 0 29.561 0 26 1.111 23.26 3.048c-5.61 3.969-4.869 12.622-4.378 18.348.067.784.13 1.524.167 2.157.327 5.607.03 8.563-.359 9.461-.251.587-1.49 2.258-2.8 4.027-1.356 1.83-2.892 3.903-4.152 5.835-1.502 2.325-2.715 5.88-3.889 9.316-.858 2.515-1.669 4.89-2.458 6.31a8.783 8.783 0 0 0-.813 6.454c-.566.403-1.385 1.197-2.075 2.693-.835 1.826-2.529 2.807-6.05 3.501-1.62.34-2.735 1.037-3.319 2.073-.85 1.508-.387 3.403.035 4.698.624 1.903.235 3.108-.471 5.296-.163.505-.347 1.076-.534 1.707-.295.995-.189 1.9.315 2.688 1.33 2.084 5.211 2.82 9.207 3.303 2.385.29 4.997 1.268 7.522 2.214 2.475.927 5.033 1.885 7.359 2.176.353.046.704.069 1.041.069 3.512 0 5.098-2.388 5.601-3.37 1.262-.263 5.612-1.108 10.096-1.221 4.476-.131 8.808.775 10.035 1.056.385.757 1.402 2.485 3.023 3.376.891.499 2.13.785 3.4.785h.001c1.356 0 3.937-.329 5.979-2.53 2.036-2.212 7.125-5.036 10.842-7.098.829-.46 1.605-.891 2.285-1.28 2.087-1.186 3.226-2.88 3.125-4.65-.085-1.468-1.034-2.757-2.476-3.362zm-46.213-.426c-.26-1.876-2.614-3.736-5.341-5.89-2.23-1.762-4.757-3.759-5.453-5.45-1.44-3.488-.305-9.621 1.673-12.78.977-1.58 1.775-3.979 2.547-6.298.834-2.504 1.696-5.093 2.66-6.227 1.527-1.77 2.937-5.212 3.187-7.926 1.43 1.399 3.648 3.174 5.697 3.174.315 0 .621-.042.914-.127 1.402-.415 3.463-1.636 5.457-2.816 1.72-1.018 3.839-2.273 4.636-2.388C40.65 31.94 48.597 49.962 49.41 55.75c.642 4.58-.036 8.366-.378 9.849a6.9 6.9 0 0 0-.946-.07c-2.213 0-2.799 1.238-2.952 1.978-.392 1.92-.434 8.063-.438 9.443-.8 1.042-4.848 5.95-10.659 6.832-2.367.353-4.577.532-6.57.532-1.702 0-2.788-.135-3.24-.205l-2.92-3.424c1.152-.583 2.303-1.812 2-4.03zm3.706-56.463c-.091.04-.181.084-.27.13a5.71 5.71 0 0 0-.06-.615c-.32-1.88-1.536-3.246-2.893-3.246-.1 0-.202.008-.312.026-.808.138-1.441.76-1.788 1.64.304-1.933 1.373-3.365 2.642-3.365 1.49 0 2.747 2.057 2.747 4.492 0 .307-.021.612-.066.938zm11.574 1.45c.136-.445.21-.926.21-1.426 0-2.208-1.367-3.937-3.111-3.937-1.706 0-3.093 1.766-3.093 3.937 0 .148.007.296.02.444l-.264-.104a6.156 6.156 0 0 1-.295-1.893c0-2.64 1.646-4.788 3.67-4.788s3.67 2.148 3.67 4.788c0 1.098-.296 2.147-.807 2.98zm-1.492 5.138c-.03.134-.092.193-.778.559-.346.185-.777.415-1.317.751l-.36.224c-1.45.9-4.842 3.009-5.763 3.133-.626.086-1.013-.163-1.883-.769a27.121 27.121 0 0 0-.628-.428c-1.568-1.055-2.577-2.217-2.691-2.671.511-.405 1.779-1.419 2.428-2.02 1.317-1.254 2.643-2.098 3.299-2.098.034 0 .066.003.098.009.771.14 2.672.917 4.061 1.485.642.262 1.196.489 1.586.633 1.23.432 1.87.985 1.948 1.192zm11.04 58.662c.693-3.205 1.491-7.564 1.362-10.134-.03-.584-.08-1.22-.129-1.834-.091-1.149-.227-2.857-.087-3.363a.59.59 0 0 1 .093-.034c.005 1.469.317 4.4 2.604 5.422.681.304 1.46.459 2.314.459 2.291 0 4.833-1.152 5.874-2.22.613-.627 1.129-1.396 1.49-2.005.079.237.127.547.102.946-.136 2.167.891 5.042 2.847 6.102l.285.153c.696.375 2.547 1.37 2.576 1.842 0 0-.015.056-.119.154-.463.434-2.094 1.288-3.671 2.113-2.799 1.465-5.97 3.124-7.395 4.66-2.005 2.163-4.274 3.616-5.643 3.616a1.45 1.45 0 0 1-.449-.065c-1.488-.475-2.712-2.675-2.054-5.812zm-50.71-8.176c-.15-.727-.27-1.302-.142-1.858.093-.413 2.08-.854 2.928-1.043 1.192-.265 2.426-.54 3.232-1.041 1.09-.677 1.681-1.926 2.202-3.028.377-.796.767-1.62 1.23-1.89a.256.256 0 0 1 .142-.034c.869 0 2.69 1.87 3.74 3.544.267.423.76 1.268 1.33 2.248 1.707 2.926 4.044 6.935 5.264 8.278 1.1 1.208 2.88 3.53 2.443 5.521-.321 1.545-2.028 2.802-2.43 3.08a2.431 2.431 0 0 1-.54.051c-2.336 0-6.96-1.992-9.445-3.062l-.367-.158c-1.388-.596-3.652-.972-5.842-1.335-1.743-.29-4.13-.685-4.525-1.043-.32-.368.051-1.567.38-2.624.236-.76.48-1.545.613-2.368.19-1.312-.033-2.38-.212-3.238z" opacity=".2"/>
</svg>
