<svg xmlns="http://www.w3.org/2000/svg" width="68" height="71" viewBox="0 0 68 71">
    <g fill="#FFF" fill-rule="nonzero" opacity=".2">
        <path d="M-7 96l43.086-.043C53.714 95.957 68 81.947 68 64.685c0-17.296-14.286-31.307-31.914-31.307l-11.19.06A1.593 1.593 0 0 1 23.3 31.85c0-.875.715-1.588 1.596-1.588l43.009.01L67.922 17H24.887c-8.32 0-15.09 6.649-15.09 14.817 0 8.177 6.769 14.8 15.09 14.8l11.243.145c10.1 0 18.273 8.013 18.273 17.898 0 9.892-8.172 17.923-18.273 17.923H-6.983L-7 96"/>
        <path d="M-6.966 79h42.573c8.242 0 14.908-6.632 14.908-14.829 0-8.188-6.666-14.812-14.908-14.812l-11.102-.12c-9.957 0-18.035-8.033-18.035-17.957 0-9.897 8.078-17.93 18.035-17.93L67 13.341 66.983 0h-42.47C7.126 0-7 14.014-7 31.317c0 17.304 14.125 31.325 31.514 31.325l10.99.017c.835 0 1.54.68 1.54 1.538 0 .843-.705 1.521-1.54 1.521l-42.487.034L-6.966 79"/>
    </g>
</svg>
