<svg xmlns="http://www.w3.org/2000/svg" width="73" height="70" viewBox="0 0 73 70">
    <path fill="#FFF" fill-rule="nonzero" d="M72.897 40.133C71.487 18.668 54.332 1.508 32.867.097V0h-5.734v.097c-21.465 1.41-38.625 18.57-40.036 40.036H-13v5.734h.097c1.41 21.465 18.57 38.62 40.036 40.03V86h5.734v-.103c21.465-1.41 38.62-18.565 40.03-40.03H73v-5.734h-.103zM13.918 9.374c-2.77 3.68-5.068 8.296-6.742 13.56h-8.589a37.463 37.463 0 0 1 15.331-13.56zm-18.33 19.293h10.08a68.088 68.088 0 0 0-1.41 11.466H-7.159A36.944 36.944 0 0 1-4.41 28.667zm-2.746 17.2H4.257a68.088 68.088 0 0 0 1.41 11.466H-4.41a36.944 36.944 0 0 1-2.747-11.466zm5.745 17.2H7.17c1.674 5.263 3.973 9.878 6.748 13.559a37.422 37.422 0 0 1-15.33-13.56zM27.133 79.9c-5.894-1.577-10.968-7.907-14.046-16.833h14.046V79.9zm0-22.567H11.476c-.809-3.572-1.32-7.43-1.485-11.466h17.142v11.466zm0-17.2H9.991c.166-4.036.676-7.894 1.485-11.466h15.657v11.466zm0-17.2H13.087c3.078-8.926 8.152-15.256 14.046-16.827v16.827zm34.28 0h-8.577c-1.68-5.263-3.973-9.878-6.754-13.559a37.5 37.5 0 0 1 15.33 13.56zM32.867 6.106c5.888 1.57 10.968 7.9 14.046 16.827H32.867V6.106zm0 22.56h15.652c.814 3.573 1.313 7.431 1.49 11.467H32.867V28.667zm0 17.2h17.142c-.166 4.037-.676 7.895-1.49 11.467H32.867V45.867zm0 34.034V63.067h14.046c-3.078 8.926-8.158 15.256-14.046 16.833zm13.215-3.274c2.77-3.687 5.074-8.296 6.754-13.56h8.577a37.458 37.458 0 0 1-15.331 13.56zm18.33-19.293h-10.08a68.088 68.088 0 0 0 1.41-11.466h11.41a36.778 36.778 0 0 1-2.74 11.466zm-8.67-17.2a68.088 68.088 0 0 0-1.41-11.466h10.08a36.944 36.944 0 0 1 2.746 11.466H55.743z" opacity=".3"/>
</svg>
