<svg xmlns="http://www.w3.org/2000/svg" width="84" height="76" viewBox="0 0 84 76">
    <path fill="#FFF" fill-rule="nonzero" d="M12.493 7.805c-.047.036-.083.075-.126.11.261-.275.637-.571.884-.732C20.452 2.503 28.773 0 38.005 0a45.753 45.753 0 0 1 23.629 6.532c.5.297 1.866 1.234 2.57 2.085v.003c-6.66-7.344-26.242 8.413-26.242 8.413-6.772-5.22-13-8.778-17.639-10.043-3.876-1.062-6.558-.175-7.83.815zm59.257 6.943c-.204-.225-.426-.436-.63-.668-1.684-1.849-3.754-2.296-5.62-2.174-1.7.533-9.548 3.36-19.22 12.492 0 0 10.888 10.586 17.556 21.409 6.662 10.822 10.645 19.328 8.196 31.134C79.466 68.77 84 57.917 84 45.996c0-12.063-4.645-23.042-12.25-31.248zM55.13 50.43c-2.954-3.315-7.349-8.063-13.152-13.833a403.807 403.807 0 0 0-4.02-3.94s-2.12 2.12-4.88 4.909v-.004c-3.533 3.568-8.113 8.223-10.656 10.94C17.895 53.334 4.926 68.504 4.197 77.01c0 0-2.886-6.747 3.447-22.307C11.78 44.531 24.282 29.257 29.502 24.28c0 0-4.77-5.249-10.756-8.874l-.035-.01s-.068-.054-.175-.122c-2.879-1.716-6.022-3.04-9.047-3.214-3.09.218-5.045 2.477-5.045 2.477C-3.276 22.767-8 33.83-8 46c0 25.403 20.596 46 46.005 46 13.484 0 25.617-5.813 34.034-15.056-.003-.014-.969-6.078-7.158-14.776-1.456-2.038-6.773-8.399-9.751-11.738z" opacity=".2"/>
</svg>
